<?xml version="1.0" encoding="UTF-8"?>
<svg id="uuid-0fdd3935-1512-42df-a19d-7b04bab33164" data-name="Calque 1" xmlns="http://www.w3.org/2000/svg" viewBox="0 0 102.16 26.42">
  <defs>
    <style>
      .uuid-7a1a7c8d-28cd-4404-8b3d-3d28ccc90807 {
        fill: #f4bc20;
      }

      .uuid-b26a65e9-49d5-4cb4-8419-2bced8948437, .uuid-a823c3d7-1119-4ae4-94d8-282dbb30101f, .uuid-566c24f3-eaa3-4e63-9ff7-163d61f8ed70 {
        fill: #fff;
      }

      .uuid-1c4a844a-d96c-4318-8e5b-e2a582ef13ed {
        fill: #f39422;
      }

      .uuid-243b5f61-1c15-41a1-b8cd-9867960f83a0 {
        fill: #ff8019;
      }

      .uuid-c6f25d59-a57e-486a-8e0c-142cc3415cd7 {
        fill: #d8dcdd;
      }

      .uuid-25c15456-fd2a-414d-bff9-5f5dea659a0f {
        fill: #1d1d1b;
      }

      .uuid-af1cb2fa-56db-4618-9cee-a9bd3dd3a25f {
        fill: #3c3c3b;
      }

      .uuid-a823c3d7-1119-4ae4-94d8-282dbb30101f {
        stroke-width: .55px;
      }

      .uuid-a823c3d7-1119-4ae4-94d8-282dbb30101f, .uuid-566c24f3-eaa3-4e63-9ff7-163d61f8ed70 {
        stroke: #3c3c3b;
        stroke-miterlimit: 10;
      }

      .uuid-566c24f3-eaa3-4e63-9ff7-163d61f8ed70 {
        stroke-linecap: round;
        stroke-width: .39px;
      }
    </style>
  </defs>
  <g>
    <path class="uuid-243b5f61-1c15-41a1-b8cd-9867960f83a0" d="m29.72,17.42c0-.69-.24-1.22-.73-1.59-.49-.37-1.36-.76-2.63-1.17-1.27-.41-2.27-.81-3.01-1.21-2.01-1.09-3.02-2.55-3.02-4.39,0-.96.27-1.81.81-2.56.54-.75,1.31-1.34,2.32-1.76,1.01-.42,2.14-.63,3.4-.63s2.39.23,3.38.69c.99.46,1.76,1.11,2.31,1.94.55.84.82,1.79.82,2.85h-3.65c0-.81-.26-1.44-.77-1.89-.51-.45-1.23-.68-2.15-.68s-1.59.19-2.08.57c-.5.38-.74.87-.74,1.49,0,.58.29,1.06.87,1.45.58.39,1.43.75,2.56,1.1,2.08.62,3.59,1.4,4.54,2.32.95.92,1.42,2.08,1.42,3.46,0,1.53-.58,2.74-1.74,3.61s-2.72,1.31-4.69,1.31c-1.36,0-2.6-.25-3.72-.75s-1.97-1.18-2.56-2.05c-.59-.87-.88-1.87-.88-3.02h3.66c0,1.95,1.17,2.93,3.51,2.93.87,0,1.55-.18,2.03-.53.49-.35.73-.85.73-1.48Z"/>
    <path class="uuid-243b5f61-1c15-41a1-b8cd-9867960f83a0" d="m45.86,18.42h-6.4l-1.22,3.65h-3.88l6.6-17.72h3.38l6.63,17.72h-3.88l-1.23-3.65Zm-5.42-2.96h4.43l-2.23-6.63-2.2,6.63Z"/>
    <path class="uuid-243b5f61-1c15-41a1-b8cd-9867960f83a0" d="m56.51,22.07h-3.65V4.35h3.65v17.72Z"/>
    <path class="uuid-243b5f61-1c15-41a1-b8cd-9867960f83a0" d="m66.44,17.67l4.02-13.33h4.06l-6.17,17.72h-3.81l-6.15-17.72h4.05l3.99,13.33Z"/>
    <path class="uuid-243b5f61-1c15-41a1-b8cd-9867960f83a0" d="m76.33,13.35l1.02-9.01h9.93v2.93h-7.05l-.44,3.81c.84-.45,1.72-.67,2.67-.67,1.69,0,3.01.52,3.97,1.57.96,1.05,1.44,2.51,1.44,4.39,0,1.14-.24,2.17-.72,3.07s-1.17,1.61-2.08,2.1-1.96.75-3.19.75c-1.07,0-2.07-.22-2.98-.65s-1.64-1.04-2.17-1.83c-.53-.79-.81-1.68-.85-2.69h3.48c.07.74.33,1.31.77,1.72s1.02.61,1.73.61c.8,0,1.41-.29,1.84-.86.43-.57.64-1.38.64-2.43s-.25-1.78-.74-2.31c-.49-.54-1.2-.8-2.11-.8-.84,0-1.51.22-2.03.66l-.34.32-2.8-.69Z"/>
    <path class="uuid-243b5f61-1c15-41a1-b8cd-9867960f83a0" d="m102.16,6.31l-6.85,15.76h-3.71l6.86-14.88h-8.81v-2.84h12.51v1.96Z"/>
  </g>
  <g>
    <ellipse id="uuid-03345b01-3972-4887-bb46-1f758839a25c" data-name="shadow" class="uuid-c6f25d59-a57e-486a-8e0c-142cc3415cd7" cx="9.93" cy="25.83" rx="2.77" ry=".58"/>
    <g id="uuid-e0333943-e417-47ce-9c3d-e57b78d92c41" data-name="foot_left">
      <path class="uuid-1c4a844a-d96c-4318-8e5b-e2a582ef13ed" d="m9.88,25.41c-.91-.03-1.62-1.02-1.59-2.22.04-1.17.79-2.12,1.68-2.12.95.03,1.66,1.02,1.63,2.22-.04,1.17-.79,2.12-1.68,2.12h-.04Z"/>
      <path class="uuid-af1cb2fa-56db-4618-9cee-a9bd3dd3a25f" d="m9.98,20.8l.03.55c.34.01.67.2.92.54.28.37.42.87.4,1.4-.03,1.02-.66,1.85-1.44,1.85h0c-.34-.01-.67-.2-.92-.54-.28-.37-.42-.87-.4-1.4.03-1.02.66-1.85,1.41-1.85v-.55m0,0c-1.04,0-1.91,1.05-1.95,2.38-.04,1.35.79,2.47,1.85,2.5.02,0,.03,0,.05,0,1.04,0,1.91-1.05,1.95-2.38.04-1.35-.79-2.47-1.85-2.5-.02,0-.03,0-.05,0h0Z"/>
    </g>
    <g id="uuid-95e188f7-1b74-485f-9cec-384ec75e6e4b" data-name="foot_shadow">
      <path class="uuid-7a1a7c8d-28cd-4404-8b3d-3d28ccc90807" d="m10.89,24.92c-.07,0-.63.55-.7.55-.92-.09-1.85-1.11-1.87-2.26-.02-1.15.86-1.99,1.79-1.9.07,0,.14.02.21.04-.78.1-1.27.71-1.27,1.85,0,1.03.45,1.81,1.85,1.73Z"/>
    </g>
    <g id="uuid-b3ea0c70-cf4e-4a57-a279-e24e2af5bbad" data-name="foot_left">
      <path class="uuid-af1cb2fa-56db-4618-9cee-a9bd3dd3a25f" d="m9.98,20.8l.03.55c.34.01.67.2.92.54.28.37.42.87.4,1.4-.03,1.02-.66,1.85-1.44,1.85h0c-.34-.01-.67-.2-.92-.54-.28-.37-.42-.87-.4-1.4.03-1.02.66-1.85,1.41-1.85v-.55m0,0c-1.04,0-1.91,1.05-1.95,2.38-.04,1.35.79,2.47,1.85,2.5.02,0,.03,0,.05,0,1.04,0,1.91-1.05,1.95-2.38.04-1.35-.79-2.47-1.85-2.5-.02,0-.03,0-.05,0h0Z"/>
    </g>
    <g id="uuid-4220d0e9-e81d-4e2a-9715-641f25823bb3" data-name="hand_left">
      <path class="uuid-1c4a844a-d96c-4318-8e5b-e2a582ef13ed" d="m12.28,18.46c-.72,0-1.47-.54-1.86-1.35-.52-1.08-.28-2.27.54-2.67.18-.09.37-.13.57-.13.72,0,1.47.54,1.86,1.35.52,1.08.28,2.27-.54,2.67-.18.09-.37.13-.57.13h0Z"/>
      <path class="uuid-af1cb2fa-56db-4618-9cee-a9bd3dd3a25f" d="m11.52,14.58c.62,0,1.27.48,1.62,1.2.23.48.31.99.21,1.44-.09.41-.31.72-.62.87-.14.07-.29.1-.45.1-.62,0-1.27-.48-1.62-1.2-.45-.92-.26-1.98.41-2.31.14-.07.29-.1.45-.1m0-.55c-.24,0-.47.05-.69.16-.96.47-1.25,1.83-.66,3.04.46.93,1.3,1.51,2.11,1.51.24,0,.47-.05.69-.16.96-.47,1.25-1.83.66-3.04-.46-.93-1.3-1.51-2.11-1.51h0Z"/>
    </g>
    <path id="uuid-7e7a791a-76c9-4811-8cb6-079651732231" data-name="body" class="uuid-a823c3d7-1119-4ae4-94d8-282dbb30101f" d="m10.58,14.53c.08.12-.36.45-.1.55,1.71.62,3.64,5.98-.16,7.17-5.22,1.17-6.54-.93-6.54-.93,0,0-3.29-2.93,1.56-6.86,4.27-3.46,5.02-.9,5.12-.24.02.11.06.22.12.31Z"/>
    <g id="uuid-72127ef6-eff8-4e11-a7d8-4d4931a04e4c" data-name="ear_left">
      <path class="uuid-1c4a844a-d96c-4318-8e5b-e2a582ef13ed" d="m13.32,11.65c-1.01,0-1.83-.82-1.83-1.83s.82-1.83,1.83-1.83,1.83.82,1.83,1.83-.82,1.83-1.83,1.83Z"/>
      <path class="uuid-af1cb2fa-56db-4618-9cee-a9bd3dd3a25f" d="m13.32,8.26c.86,0,1.56.7,1.56,1.56s-.7,1.56-1.56,1.56-1.56-.7-1.56-1.56.7-1.56,1.56-1.56m0-.55c-1.16,0-2.1.94-2.1,2.1s.94,2.1,2.1,2.1,2.1-.94,2.1-2.1-.94-2.1-2.1-2.1h0Z"/>
    </g>
    <g id="uuid-900176ff-25d8-448e-9a1c-72722733224b" data-name="ear_right">
      <path class="uuid-1c4a844a-d96c-4318-8e5b-e2a582ef13ed" d="m2.1,11.49c-1.01,0-1.83-.82-1.83-1.83s.82-1.83,1.83-1.83,1.83.82,1.83,1.83-.82,1.83-1.83,1.83Z"/>
      <path class="uuid-af1cb2fa-56db-4618-9cee-a9bd3dd3a25f" d="m2.1,8.11c.86,0,1.56.7,1.56,1.56s-.7,1.56-1.56,1.56-1.56-.7-1.56-1.56.7-1.56,1.56-1.56m0-.55c-1.16,0-2.1.94-2.1,2.1s.94,2.1,2.1,2.1,2.1-.94,2.1-2.1-.94-2.1-2.1-2.1h0Z"/>
    </g>
    <path id="uuid-f0acc018-d0c1-4403-87e2-77679b872b85" data-name="feeler_left" class="uuid-af1cb2fa-56db-4618-9cee-a9bd3dd3a25f" d="m9.15,4.01l1.31-2.74c-.11-.13-.18-.31-.18-.49,0-.43.35-.78.78-.78s.78.35.78.78c0,.42-.33.76-.75.78l-.96,2.92-.97-.47Z"/>
    <path id="uuid-fda14025-9eca-4c87-aa91-79439089a044" data-name="feeler_right" class="uuid-af1cb2fa-56db-4618-9cee-a9bd3dd3a25f" d="m6.27,4.25l-1.31-2.74c.11-.13.18-.31.18-.49,0-.43-.35-.78-.78-.78s-.78.35-.78.78.33.76.75.78l.96,2.92.97-.47Z"/>
    <g id="uuid-1eaf7688-93a5-4c1a-9d4b-84a1cb995a53" data-name="head">
      <path class="uuid-b26a65e9-49d5-4cb4-8419-2bced8948437" d="m7.71,16.01c-3.42,0-6.19-2.81-6.19-6.27S4.3,3.47,7.71,3.47s6.19,2.81,6.19,6.27-2.78,6.27-6.19,6.27Z"/>
      <path class="uuid-af1cb2fa-56db-4618-9cee-a9bd3dd3a25f" d="m7.71,3.74c3.27,0,5.92,2.69,5.92,6s-2.66,6-5.92,6S1.79,13.05,1.79,9.74,4.45,3.74,7.71,3.74m0-.55c-3.57,0-6.47,2.93-6.47,6.54s2.9,6.54,6.47,6.54,6.47-2.93,6.47-6.54-2.9-6.54-6.47-6.54h0Z"/>
    </g>
    <g id="uuid-db3a3f33-86c3-40a4-8d7c-b23cbc9f1d35" data-name="hand_right">
      <path class="uuid-1c4a844a-d96c-4318-8e5b-e2a582ef13ed" d="m2.98,16.99c-.82,0-1.59-.79-1.8-1.83-.23-1.17.3-2.27,1.2-2.45.08-.02.17-.02.25-.02.82,0,1.59.79,1.8,1.83.12.58.05,1.16-.19,1.62-.23.45-.59.74-1.01.82-.08.02-.17.03-.25.03h0Z"/>
      <path class="uuid-af1cb2fa-56db-4618-9cee-a9bd3dd3a25f" d="m2.63,12.96c.69,0,1.35.69,1.53,1.61.1.52.04,1.03-.17,1.45-.19.37-.48.61-.82.68-.07.01-.13.02-.2.02-.69,0-1.35-.69-1.53-1.61-.1-.52-.04-1.03.17-1.45.19-.37.48-.61.82-.68.07-.01.13-.02.2-.02m0-.55c-.1,0-.2,0-.3.03-1.04.21-1.68,1.45-1.41,2.77.24,1.19,1.13,2.05,2.07,2.05.1,0,.2,0,.3-.03,1.04-.21,1.68-1.45,1.41-2.77-.24-1.19-1.13-2.05-2.07-2.05h0Z"/>
    </g>
    <g id="uuid-33f66d1c-473e-47ea-b91f-2c588a6e779c" data-name="foot_shadow">
      <path class="uuid-7a1a7c8d-28cd-4404-8b3d-3d28ccc90807" d="m3.9,16.68c-.07,0-.79.27-.87.26-.92-.09-1.69-1.1-1.71-2.24-.02-1.15.7-2.01,1.63-1.92.07,0,.14.02.21.04-.78.1-1.2.78-1.2,1.92,0,1.03.62,1.95,1.95,1.95Z"/>
    </g>
    <g id="uuid-d22290f9-a367-448a-8f24-249b8f9bcc5d" data-name="hand_right">
      <path class="uuid-af1cb2fa-56db-4618-9cee-a9bd3dd3a25f" d="m2.63,12.96c.69,0,1.35.69,1.53,1.61.1.52.04,1.03-.17,1.45-.19.37-.48.61-.82.68-.07.01-.13.02-.2.02-.69,0-1.35-.69-1.53-1.61-.1-.52-.04-1.03.17-1.45.19-.37.48-.61.82-.68.07-.01.13-.02.2-.02m0-.55c-.1,0-.2,0-.3.03-1.04.21-1.68,1.45-1.41,2.77.24,1.19,1.13,2.05,2.07,2.05.1,0,.2,0,.3-.03,1.04-.21,1.68-1.45,1.41-2.77-.24-1.19-1.13-2.05-2.07-2.05h0Z"/>
    </g>
    <g id="uuid-744aa0fc-d600-4d70-be04-d0f30e2d647a" data-name="foot_right">
      <path class="uuid-1c4a844a-d96c-4318-8e5b-e2a582ef13ed" d="m4.8,23.46c-.87,0-1.63-.89-1.72-2.04-.05-.59.09-1.15.38-1.59.28-.42.67-.67,1.1-.7h.1c.87,0,1.63.89,1.72,2.03.05.59-.09,1.15-.38,1.59-.28.42-.67.67-1.1.7h-.1Z"/>
      <path class="uuid-af1cb2fa-56db-4618-9cee-a9bd3dd3a25f" d="m4.66,19.4c.72,0,1.37.8,1.45,1.78.04.53-.08,1.03-.34,1.42-.23.35-.55.55-.89.58-.03,0-.05,0-.08,0-.72,0-1.37-.8-1.45-1.78-.04-.53.08-1.03.34-1.42.23-.35.55-.55.89-.58.03,0,.05,0,.08,0m0-.55s-.08,0-.12,0c-1.06.08-1.84,1.24-1.73,2.58.1,1.29.98,2.29,1.99,2.29.04,0,.08,0,.12,0,1.06-.08,1.84-1.24,1.73-2.58-.1-1.29-.98-2.29-1.99-2.29h0Z"/>
    </g>
    <path id="uuid-4c51c273-67e0-4807-99e9-0d770aa4d988" data-name="head_shadow" class="uuid-c6f25d59-a57e-486a-8e0c-142cc3415cd7" d="m13.05,9.78c0,3.16-2.25,5.73-5.03,5.73-.15,0-.31,0-.46-.02,2.47-.26,4.41-2.72,4.41-5.7s-1.95-5.42-4.42-5.68c.15-.02.31-.04.47-.04,2.78,0,5.03,2.56,5.03,5.73Z"/>
    <g id="uuid-cd111f2c-5500-4260-9393-6cdee06c199d" data-name="eyes_background">
      <path class="uuid-af1cb2fa-56db-4618-9cee-a9bd3dd3a25f" d="m4.37,11.81h-.05c-.81-.09-1.44-.94-1.44-1.95s.63-1.86,1.44-1.94h.07s6.57,0,6.57,0c.87,0,1.58.87,1.58,1.95s-.71,1.95-1.58,1.95h-6.59Z"/>
      <path class="uuid-b26a65e9-49d5-4cb4-8419-2bced8948437" d="m10.96,8.18c.72,0,1.3.75,1.3,1.68s-.58,1.68-1.3,1.68h-6.61c-.67-.08-1.2-.81-1.2-1.68s.53-1.6,1.2-1.67h.05s6.57,0,6.57,0m0-.55h-6.67c-.95.11-1.69,1.06-1.69,2.22s.74,2.11,1.69,2.21h0s6.67,0,6.67,0c1.02,0,1.85-.99,1.85-2.22s-.83-2.22-1.85-2.22h0Z"/>
    </g>
    <g id="uuid-07656867-1d87-4675-883a-31ce8075516b" data-name="eyes_background">
      <path class="uuid-af1cb2fa-56db-4618-9cee-a9bd3dd3a25f" d="m4.37,11.65h-.05c-.81-.09-1.44-.94-1.44-1.95s.63-1.86,1.44-1.94h.07s6.57,0,6.57,0c.87,0,1.58.87,1.58,1.95s-.71,1.95-1.58,1.95h-6.59Z"/>
      <path class="uuid-b26a65e9-49d5-4cb4-8419-2bced8948437" d="m10.96,8.03c.72,0,1.3.75,1.3,1.68s-.58,1.68-1.3,1.68h-6.61c-.67-.08-1.2-.81-1.2-1.68s.53-1.6,1.2-1.67h.05s6.57,0,6.57,0m0-.55h-6.67c-.95.11-1.69,1.06-1.69,2.22s.74,2.11,1.69,2.21h0s6.67,0,6.67,0c1.02,0,1.85-.99,1.85-2.22s-.83-2.22-1.85-2.22h0Z"/>
    </g>
    <g id="uuid-37f1aa6e-bbf0-4754-885c-3e4d661586fe" data-name="eye_right">
      <circle class="uuid-1c4a844a-d96c-4318-8e5b-e2a582ef13ed" cx="5.3" cy="9.74" r=".78"/>
    </g>
    <g id="uuid-c7a86b58-802a-4134-94f5-1d491f2f4d25" data-name="eye_left">
      <circle class="uuid-1c4a844a-d96c-4318-8e5b-e2a582ef13ed" cx="9.97" cy="9.66" r=".78"/>
    </g>
    <path id="uuid-2001a704-0957-443f-af18-d069bc5036d6" data-name="mouth" class="uuid-566c24f3-eaa3-4e63-9ff7-163d61f8ed70" d="m5.65,12.39s.63.56,1.34.96c.58.34,1.1.48,1.34.48.7,0,1.26-.48,2.2-1.44"/>
    <path id="uuid-0b2618f3-d6a8-4010-81fd-7506aaa6e03f" data-name="body_shadow" class="uuid-c6f25d59-a57e-486a-8e0c-142cc3415cd7" d="m10.1,16.13c.06,0,.12,0,.19.02.37.07.38.12.57.33.59.64,1.42,2.11.73,3.84-.77,1.93-3.13,1.57-3.63,1.53,0,0,1.66.02,2.78-1.85.72-1.21-.28-3.34-1-3.86h.37Z"/>
    <g id="uuid-fd8dc781-7070-4e2f-b5c7-c14648d38983" data-name="foot_shadow">
      <path class="uuid-7a1a7c8d-28cd-4404-8b3d-3d28ccc90807" d="m5.77,22.99c-.07,0-.63.55-.7.55-.92-.09-1.85-1.11-1.87-2.26-.02-1.15.86-1.99,1.79-1.9.07,0,.14.02.21.04-.78.1-1.27.71-1.27,1.85,0,1.03.45,1.81,1.85,1.73Z"/>
    </g>
    <g id="uuid-a6bb4cca-6eba-4fa2-9f4d-18774754f846" data-name="foot_right">
      <path class="uuid-af1cb2fa-56db-4618-9cee-a9bd3dd3a25f" d="m4.66,19.4c.72,0,1.37.8,1.45,1.78.04.53-.08,1.03-.34,1.42-.23.35-.55.55-.89.58-.03,0-.05,0-.08,0-.72,0-1.37-.8-1.45-1.78-.04-.53.08-1.03.34-1.42.23-.35.55-.55.89-.58.03,0,.05,0,.08,0m0-.55s-.08,0-.12,0c-1.06.08-1.84,1.24-1.73,2.58.1,1.29.98,2.29,1.99,2.29.04,0,.08,0,.12,0,1.06-.08,1.84-1.24,1.73-2.58-.1-1.29-.98-2.29-1.99-2.29h0Z"/>
    </g>
    <g>
      <path class="uuid-25c15456-fd2a-414d-bff9-5f5dea659a0f" d="m5.29,18.13s.01-.03.03-.04c.02-.01.03-.01.05-.01.02,0,.04.02.05.05.02.04.03.06.05.08.04.03.09.05.17.06.07,0,.14,0,.21-.02.09-.03.13-.08.14-.15,0-.06-.02-.11-.08-.15-.05-.03-.12-.06-.2-.07-.07-.01-.13-.04-.18-.07-.06-.04-.08-.1-.07-.17.02-.08.07-.15.17-.2.1-.05.19-.07.28-.06.04,0,.09.02.14.04.07.03.1.06.1.09,0,.04-.03.06-.07.05-.02,0-.05,0-.09-.03-.04-.01-.08-.02-.1-.03-.07,0-.13,0-.19.03-.06.03-.09.07-.1.12,0,.04.02.07.09.09.02,0,.07.02.14.03.1.02.18.06.23.12.05.06.07.12.06.2-.01.11-.08.19-.19.24-.1.05-.21.07-.33.05-.09,0-.16-.04-.23-.08-.08-.05-.11-.11-.1-.18Z"/>
      <path class="uuid-25c15456-fd2a-414d-bff9-5f5dea659a0f" d="m7.06,18.47s-.08-.06-.1-.16c0-.04-.02-.11-.03-.21-.05,0-.11.01-.19.02-.06,0-.13.02-.19.03-.03.06-.08.14-.15.25-.02.02-.04.04-.07.03-.02,0-.04,0-.05-.02-.01-.01-.02-.03-.02-.05,0-.02.05-.1.14-.24,0-.01,0-.03,0-.04,0-.04.03-.06.08-.06.06-.09.14-.2.23-.31.12-.16.19-.24.22-.24.03,0,.06.03.07.08,0,.08.02.15.03.23.02.16.05.31.07.47.01.04.02.07.03.11.01.04.02.06.02.07,0,.02,0,.03-.03.05-.02.01-.03.02-.05.02Zm-.19-.77c-.07.1-.15.2-.22.29.06,0,.14-.02.26-.03-.01-.09-.02-.17-.03-.26Z"/>
      <path class="uuid-25c15456-fd2a-414d-bff9-5f5dea659a0f" d="m7.93,17.65s-.06,0-.11-.01c-.04,0-.07-.01-.11-.02-.01.13-.02.25-.03.36,0,.03,0,.07,0,.11,0,.05,0,.08,0,.11,0,.04,0,.08,0,.11.07,0,.15,0,.22,0,.02,0,.04,0,.05.02.01.01.02.03.02.05,0,.02,0,.03-.02.05-.01.01-.03.02-.05.02-.03,0-.07,0-.12,0-.05,0-.09,0-.12,0-.03,0-.08,0-.14.01-.06,0-.11.01-.14,0-.02,0-.04,0-.05-.02-.01-.01-.02-.03-.02-.05,0-.02,0-.03.02-.05.01-.01.03-.02.05-.02.03,0,.08,0,.15-.01,0-.04,0-.08.01-.12,0-.03,0-.07,0-.11,0-.04,0-.08,0-.11,0-.1.01-.23.03-.38-.03,0-.06,0-.09,0-.03,0-.06,0-.09,0-.02,0-.03,0-.05-.02-.01-.01-.02-.03-.02-.05,0-.04.02-.06.07-.06.04,0,.1,0,.2,0,.09,0,.2.02.33.04.04,0,.06.03.06.07,0,.02,0,.04-.02.05-.01,0-.03.01-.05.01Z"/>
      <path class="uuid-25c15456-fd2a-414d-bff9-5f5dea659a0f" d="m8.91,17.56s-.05.08-.06.13c-.01.05-.03.09-.04.14-.05.16-.11.31-.16.47-.02.05-.04.11-.07.16-.01.03-.04.04-.06.04-.04,0-.06-.01-.08-.05-.06-.13-.13-.31-.2-.56-.02-.06-.04-.12-.06-.18-.03-.09-.04-.15-.04-.18,0-.02,0-.04.02-.05.01-.01.03-.02.05-.02.03,0,.06.02.07.05,0,.04.02.07.03.11.02.07.05.15.07.22.05.16.09.29.14.41,0,0,0,0,0-.01.06-.16.11-.31.17-.47.02-.05.03-.11.05-.16.02-.06.05-.11.07-.14.01-.02.03-.03.05-.03.02,0,.03,0,.05.02.01.01.02.03.02.05,0,.01,0,.03-.01.04Z"/>
      <path class="uuid-25c15456-fd2a-414d-bff9-5f5dea659a0f" d="m9.39,18.44c-.14.01-.24-.03-.31-.11,0-.01-.01-.02-.01-.03,0-.02,0-.03.02-.04.01-.01.03-.02.05-.02.02,0,.04,0,.06.02.03.02.05.04.06.05.03.02.08.02.13.02.08,0,.15-.04.19-.1.05-.06.06-.12.05-.19,0-.06-.02-.11-.05-.14-.03-.05-.08-.07-.14-.06-.05,0-.09.01-.12.03-.02.01-.05.03-.07.05-.02.03-.05.05-.07.08-.02.02-.04.03-.06.03-.02,0-.03,0-.05-.02-.01-.01-.02-.03-.02-.04,0,0,0-.05,0-.11,0-.13,0-.22,0-.26,0-.01,0-.03-.02-.05,0-.02-.01-.03-.01-.04,0-.03.02-.04.07-.04,0,0,.02,0,.04,0,.02,0,.03,0,.04,0,.03,0,.06,0,.12,0,.05,0,.09,0,.12,0,.01,0,.03,0,.05,0,.02,0,.04,0,.05,0,0,0,.02,0,.04,0,.02,0,.03,0,.04,0,.02,0,.03,0,.05.02.01.01.02.02.02.04,0,.05-.04.07-.15.08-.01,0-.03,0-.05,0-.02,0-.03,0-.04,0-.04,0-.08,0-.11,0-.04,0-.08,0-.11,0,0,.02,0,.09,0,.21.06-.05.14-.08.24-.08.1,0,.18.02.24.09.05.06.08.13.1.22.01.11-.01.21-.08.29-.07.08-.17.13-.3.14Z"/>
      <path class="uuid-25c15456-fd2a-414d-bff9-5f5dea659a0f" d="m10.54,17.46s-.03.05-.05.07c-.05.07-.09.15-.12.24-.03.09-.06.17-.08.26,0,.02-.02.07-.04.15-.01.06-.03.11-.05.14-.01.02-.03.03-.05.04-.02,0-.04,0-.05-.01-.02,0-.02-.02-.03-.04,0-.02,0-.06.03-.12.04-.12.07-.24.1-.35.05-.14.1-.25.16-.33,0,0,0,0,.01-.01-.11.01-.22.02-.34.03-.05,0-.1,0-.15.01-.04,0-.07-.02-.07-.05,0-.02,0-.03.01-.04.01-.01.03-.02.04-.02.06,0,.14-.01.25-.02.11,0,.2-.02.25-.02.04,0,.08,0,.12-.01.05,0,.07,0,.08.03,0,.02,0,.04-.03.08Z"/>
    </g>
  </g>
</svg>